<?xml version="1.0" encoding="UTF-8"?>
<svg version="1.1" xmlns="http://www.w3.org/2000/svg" width="1324" height="460">
<path d="M0 0 C436.92 0 873.84 0 1324 0 C1324 151.8 1324 303.6 1324 460 C887.08 460 450.16 460 0 460 C0 308.2 0 156.4 0 0 Z " fill="#FEFEFE" transform="translate(0,0)"/>
<path d="M0 0 C0.83272934 0.00222061 1.66545868 0.00444122 2.52342224 0.00672913 C3.95458374 0.0069104 3.95458374 0.0069104 5.41465759 0.00709534 C6.92920532 0.01476929 6.92920532 0.01476929 8.47434998 0.02259827 C9.39727844 0.02360535 10.32020691 0.02461243 11.27110291 0.02565002 C14.73339574 0.03089958 18.19567092 0.04486071 21.65794373 0.05775452 C29.39231873 0.07837952 37.12669373 0.09900452 45.09544373 0.12025452 C45.42544373 30.15025452 45.75544373 60.18025452 46.09544373 91.12025452 C49.06544373 88.81025452 52.03544373 86.50025452 55.09544373 84.12025452 C70.07803037 75.35172739 86.55970349 72.99186471 103.34934998 76.96400452 C121.70579938 82.62981163 135.50277359 94.3121893 144.77513123 111.17494202 C154.73179726 131.43502364 156.84332342 153.32400727 149.84544373 174.87025452 C145.78117453 186.20058636 140.46332046 194.5010458 132.09544373 203.12025452 C131.24852966 204.07738342 131.24852966 204.07738342 130.38450623 205.05384827 C120.54564485 215.82860133 105.58680153 221.57141085 91.21263123 222.32337952 C73.76069025 222.6471328 59.83221262 218.21533709 46.09544373 207.12025452 C45.76544373 210.42025452 45.43544373 213.72025452 45.09544373 217.12025452 C29.25544373 217.12025452 13.41544373 217.12025452 -2.90455627 217.12025452 C-2.92710025 188.97462223 -2.94553366 160.82899721 -2.95636845 132.68335819 C-2.96153218 119.61585226 -2.96857633 106.54835231 -2.97999573 93.48085022 C-2.98994022 82.09572055 -2.99640914 70.71059522 -2.99864477 59.32546133 C-2.99995228 53.29307006 -3.00304064 47.26069121 -3.01028633 41.22830391 C-3.01704285 35.55755595 -3.01917399 29.88682559 -3.01766396 24.21607399 C-3.01794045 22.12823135 -3.01994774 20.04038816 -3.02376175 17.95254898 C-3.02869325 15.11524536 -3.02755658 12.27800934 -3.02481079 9.44070435 C-3.02772363 8.60317236 -3.03063647 7.76564036 -3.03363758 6.90272862 C-3.01592226 0.19042665 -3.01592226 0.19042665 0 0 Z " fill="#374253" transform="translate(409.90455627441406,82.87974548339844)"/>
<path d="M0 0 C0.99 0.66 1.98 1.32 3 2 C3 -1.96 3 -5.92 3 -10 C18.84 -10 34.68 -10 51 -10 C51 35.54 51 81.08 51 128 C35.16 128 19.32 128 3 128 C2.67 124.7 2.34 121.4 2 118 C0.741875 118.99 -0.51625 119.98 -1.8125 121 C-5.625 124 -5.625 124 -9 124 C-9 124.66 -9 125.32 -9 126 C-25.09353359 133.13452758 -41.972708 136.3986545 -59 130 C-69.05664834 125.86585819 -77.44004683 120.95267801 -85 113 C-85.64324219 112.34128906 -86.28648437 111.68257813 -86.94921875 111.00390625 C-102.18764637 94.57549295 -105.9040324 73.42396397 -105.18359375 51.76757812 C-104.20066201 36.950405 -98.14729986 22.55936676 -89 11 C-88.35417969 10.16597656 -87.70835937 9.33195312 -87.04296875 8.47265625 C-64.67030544 -18.46585671 -27.28243252 -20.32416074 0 0 Z " fill="#374253" transform="translate(307,172)"/>
<path d="M0 0 C18.48 0 36.96 0 56 0 C67.62000598 22.07801136 67.62000598 22.07801136 71.53515625 29.8671875 C71.98475204 30.76067902 72.43434784 31.65417053 72.89756775 32.57473755 C73.8233136 34.41696946 74.74801501 36.25972662 75.67163086 38.10302734 C77.08729868 40.92442324 78.51145288 43.74144339 79.93554688 46.55859375 C80.84427116 48.36953024 81.752494 50.18071847 82.66015625 51.9921875 C83.08297379 52.82547577 83.50579132 53.65876404 83.94142151 54.51730347 C85.83580443 58.32071882 87.49482763 61.72247859 88 66 C88.66 66 89.32 66 90 66 C90.33414917 64.83706421 90.33414917 64.83706421 90.67504883 63.65063477 C92.45473653 58.74706554 94.81251282 54.22248521 97.19921875 49.58984375 C97.71249222 48.58595108 98.22576569 47.58205841 98.7545929 46.54774475 C99.84117532 44.4244543 100.92977921 42.30219728 102.02026367 40.1809082 C103.66821759 36.97501162 105.31026338 33.76614806 106.95117188 30.55664062 C108.01267212 28.48419635 109.0745107 26.41192533 110.13671875 24.33984375 C110.86057014 22.92662086 110.86057014 22.92662086 111.5990448 21.48484802 C115.30995272 14.26993256 119.15145938 7.14728972 123 0 C139.5 0 156 0 173 0 C172.23565088 3.82174561 171.71679556 5.93207319 170.02563477 9.21337891 C169.61753067 10.01256744 169.20942657 10.81175598 168.78895569 11.63516235 C168.34426437 12.4903244 167.89957306 13.34548645 167.44140625 14.2265625 C166.97822495 15.1288559 166.51504364 16.03114929 166.03782654 16.96078491 C164.55181323 19.85186515 163.05720549 22.73840584 161.5625 25.625 C160.59125043 27.51273978 159.62054213 29.40075816 158.65039062 31.2890625 C153.66682979 40.97561469 148.62919225 50.63281619 143.545578 60.26719666 C139.61449196 67.71960756 135.73884968 75.2000654 131.875 82.6875 C131.19798303 83.99808116 130.52089971 85.30862805 129.84375 86.61914062 C128.22841076 89.74570377 126.61393754 92.87271301 125 96 C124.34 96 123.68 96 123 96 C122.92652344 96.63679688 122.85304688 97.27359375 122.77734375 97.9296875 C121.66551825 102.32111888 119.62293736 106.10635631 117.5625 110.125 C117.11221436 111.01388916 116.66192871 111.90277832 116.19799805 112.81860352 C112.89219644 119.32018615 109.51308026 125.78257063 106.09936523 132.22802734 C102.55619096 138.92091599 99.06984266 145.64260097 95.59524536 152.37127686 C94.62773938 154.24469563 93.65956921 156.11776955 92.69116211 157.99072266 C92.37291977 158.60622986 92.05467743 159.22173706 91.72679138 159.855896 C91.40960648 160.46934875 91.09242157 161.08280151 90.765625 161.71484375 C88.92125806 165.28206266 87.07758035 168.849629 85.23632812 172.41845703 C83.61910223 175.55148164 81.99758144 178.68224647 80.375 181.8125 C79.66657959 183.18873535 79.66657959 183.18873535 78.94384766 184.59277344 C78.4957373 185.45547852 78.04762695 186.31818359 77.5859375 187.20703125 C77.01431885 188.31268433 77.01431885 188.31268433 76.43115234 189.44067383 C75.95887207 190.28525146 75.4865918 191.1298291 75 192 C74.56053795 193.01524246 74.56053795 193.01524246 74.11219788 194.05099487 C72.94095137 196.42110813 71.89244456 198.14572299 70 200 C66.33013997 201.11106145 62.81702945 200.93466958 59.01171875 200.78125 C57.95338333 200.76993042 56.89504791 200.75861084 55.80464172 200.74694824 C52.43040526 200.70222853 49.06044758 200.60186835 45.6875 200.5 C43.39784791 200.45986757 41.10812908 200.4233664 38.81835938 200.390625 C33.21078427 200.30250896 27.60569773 200.16871754 22 200 C29.05148771 184.84997465 36.47613052 169.89103764 43.95922852 154.95117188 C45.62849848 151.61842156 47.29406762 148.28383662 48.95865536 144.94874573 C50.25344921 142.35555181 51.55013918 139.76330974 52.84741402 137.1713562 C53.46318752 135.94047353 54.07837297 134.70929648 54.69294548 133.47781372 C55.54458256 131.77200207 56.39905625 130.06760749 57.25366211 128.36328125 C57.73725693 127.39688721 58.22085175 126.43049316 58.71910095 125.43481445 C60 123 60 123 62 120 C61.6858115 115.62444232 59.66418341 112.07128691 57.60546875 108.28515625 C57.0906041 107.32017967 57.0906041 107.32017967 56.56533813 106.33570862 C55.4456734 104.2412032 54.31676566 102.15184226 53.1875 100.0625 C52.40600906 98.60556608 51.62500691 97.14836988 50.84448242 95.69091797 C45.59556824 85.90323562 40.2904741 76.14595804 34.953125 66.40625 C31.62620481 60.32865561 28.34366275 54.22738724 25.0625 48.125 C20.36474242 39.39008666 15.65942 30.65937953 10.9375 21.9375 C10.41357666 20.96893066 9.88965332 20.00036133 9.34985352 19.00244141 C8.85155029 18.08253418 8.35324707 17.16262695 7.83984375 16.21484375 C7.36659668 15.34069824 6.89334961 14.46655273 6.40576172 13.56591797 C4.60592288 10.28069632 2.75316594 7.02635611 0.88500977 3.77954102 C0 2 0 2 0 0 Z " fill="#384354" transform="translate(1042,162)"/>
<path d="M0 0 C58.7227349 0 58.7227349 0 85.1875 0.5 C87.94204143 0.54909572 90.69660548 0.59685889 93.45117188 0.64453125 C99.96756584 0.75765632 106.48373101 0.8788878 113 1 C113 15.85 113 30.7 113 46 C92.54 46 72.08 46 51 46 C51 97.81 51 149.62 51 203 C34.17 203 17.34 203 0 203 C0 136.01 0 69.02 0 0 Z " fill="#374253" transform="translate(50,97)"/>
<path d="M0 0 C0 13.86 0 27.72 0 42 C-6 41 -6 41 -9.375 39.9375 C-14.75328586 38.546564 -19.01315791 38.21276068 -24.3125 40.3125 C-29.08721783 43.31057864 -30.74531908 46.00761965 -32.39306641 51.31201172 C-33.53003157 56.34740449 -33.57816307 61.41941833 -33.6875 66.5625 C-33.790625 70.336875 -33.89375 74.11125 -34 78 C-23.44 78 -12.88 78 -2 78 C-2 90.87 -2 103.74 -2 117 C-12.56 117 -23.12 117 -34 117 C-34 149.34 -34 181.68 -34 215 C-49.84 215 -65.68 215 -82 215 C-82 182.66 -82 150.32 -82 117 C-87.28 117 -92.56 117 -98 117 C-98 104.13 -98 91.26 -98 78 C-92.72 78 -87.44 78 -82 78 C-82.02320313 76.57429688 -82.04640625 75.14859375 -82.0703125 73.6796875 C-82.31817518 52.5373712 -80.82255555 33.0172423 -67 16 C-66.52949219 15.36835937 -66.05898438 14.73671875 -65.57421875 14.0859375 C-56.93403189 3.03623374 -43.429362 -2.88224916 -29.796875 -4.71875 C-19.26709936 -5.77761012 -9.85444073 -3.94177629 0 0 Z " fill="#374253" transform="translate(1018,85)"/>
<path d="M0 0 C0 14.19 0 28.38 0 43 C-4.29 41.68 -8.58 40.36 -13 39 C-18.59663398 38.44821918 -22.34876099 38.7229907 -27 42 C-31.21079019 47.44846654 -32.06583324 53.04440234 -32.31640625 59.73828125 C-32.35451416 60.70032471 -32.39262207 61.66236816 -32.43188477 62.65356445 C-32.47498779 63.86101318 -32.51809082 65.06846191 -32.5625 66.3125 C-32.706875 70.169375 -32.85125 74.02625 -33 78 C-22.77 78 -12.54 78 -2 78 C-2 90.87 -2 103.74 -2 117 C-12.23 117 -22.46 117 -33 117 C-33 149.34 -33 181.68 -33 215 C-48.84 215 -64.68 215 -81 215 C-81 182.66 -81 150.32 -81 117 C-86.61 117 -92.22 117 -98 117 C-98 104.13 -98 91.26 -98 78 C-92.39 78 -86.78 78 -81 78 C-81.03480469 76.21335937 -81.06960938 74.42671875 -81.10546875 72.5859375 C-81.44204443 48.2585205 -78.85755555 28.72062578 -61.625 10.1875 C-44.66842026 -5.88472298 -20.99142355 -8.39656942 0 0 Z " fill="#374253" transform="translate(890,85)"/>
<path d="M0 0 C15.51 0 31.02 0 47 0 C47 71.28 47 142.56 47 216 C31.49 216 15.98 216 0 216 C0 144.72 0 73.44 0 0 Z " fill="#364152" transform="translate(607,84)"/>
<path d="M0 0 C15.84 0 31.68 0 48 0 C48 45.54 48 91.08 48 138 C32.16 138 16.32 138 0 138 C0 92.46 0 46.92 0 0 Z " fill="#374253" transform="translate(703,162)"/>
<path d="M0 0 C8.71888753 5.45405011 13.31241027 12.50206944 16.0625 22.4375 C17.32143621 32.34478062 16.13472949 40.73457684 10.296875 48.91015625 C5.30712894 54.95089213 0.49302238 57.96065921 -6.9375 60.4375 C-16.21498909 61.29888027 -23.97077419 60.34830772 -31.41796875 54.484375 C-39.2170387 47.20693942 -42.73561394 39.38230394 -43.25 28.8125 C-43.09441547 19.29355562 -39.49112422 12.09264734 -32.953125 5.3125 C-23.82626226 -3.17760487 -11.32882303 -5.80370032 0 0 Z " fill="#FDFDFE" transform="translate(293.9375,202.5625)"/>
<path d="M0 0 C6.1771631 4.86362841 9.54004904 10.62014713 12 18 C12.92789404 29.69754945 11.20859655 38.89459565 3.84765625 48.17578125 C-1.91204884 53.86242455 -8.76734065 57.13690151 -16.8125 57.1875 C-26.17595573 57.07509357 -33.65960688 53.70688997 -40.25 47 C-46.44736899 39.26175511 -47.74540291 29.12791529 -46.75 19.609375 C-45.52321317 11.27744777 -41.75658205 4.97251481 -35.25 -0.375 C-23.91436785 -8.09699609 -11.2895266 -7.45571125 0 0 Z " fill="#FEFEFE" transform="translate(502,206)"/>
<path d="M0 0 C0.7513623 0.01095703 1.50272461 0.02191406 2.27685547 0.03320312 C8.19034733 0.2649533 12.25870089 1.31005888 16.5625 5.5625 C17.19542969 6.17867187 17.82835937 6.79484375 18.48046875 7.4296875 C23.92141877 13.19597267 26.68341244 18.40833315 26.9375 26.4375 C26.66397435 35.21220275 24.59010527 41.38246742 18.53515625 47.8359375 C12.11098024 53.45868165 4.97392381 54.91810684 -3.359375 54.84765625 C-7.75731559 54.44023282 -10.81299596 53.00141861 -14.4375 50.5625 C-15.7678125 49.69625 -15.7678125 49.69625 -17.125 48.8125 C-23.39848199 42.70857157 -26.3953632 35.40700475 -26.8125 26.6875 C-26.59842795 18.37646753 -22.82908233 12.52808056 -17.51171875 6.38671875 C-11.90050282 1.45180757 -7.32147604 -0.15065439 0 0 Z " fill="#E67A76" transform="translate(139.4375,171.4375)"/>
<path d="M0 0 C7.12373979 3.27540691 11.23360532 7.80194868 14.88671875 14.62109375 C17.25075219 21.86890886 17.63070865 31.59987467 14.44921875 38.62109375 C10.06540019 45.67199074 4.15204386 51.03067794 -3.98828125 53.12109375 C-11.35086229 54.08937364 -17.66076048 53.85582234 -23.98828125 49.73828125 C-29.27660491 45.46217579 -34.63177901 39.98763604 -35.98828125 33.12109375 C-36.93368031 23.81581756 -36.71732243 15.80779725 -30.98828125 8.12109375 C-22.70140392 -0.93665589 -11.84474086 -3.48374731 0 0 Z " fill="#E67A76" transform="translate(736.98828125,83.87890625)"/>
</svg>
